<?xml version="1.0" encoding="UTF-8" standalone="no" ?>
<!DOCTYPE svg PUBLIC "-//W3C//DTD SVG 1.1//EN" "http://www.w3.org/Graphics/SVG/1.1/DTD/svg11.dtd">
<svg xmlns="http://www.w3.org/2000/svg" xmlns:xlink="http://www.w3.org/1999/xlink" version="1.1" width="1080" height="1080" viewBox="9.42 -12.95 1080 1080" xml:space="preserve">
<desc>Created with Fabric.js 5.2.4</desc>
<defs>
</defs>
<rect x="0" y="0" width="100%" height="100%" fill="transparent"></rect>
<g transform="matrix(1 0 0 1 540 540)" id="1130af95-a8bf-4570-8ab4-8a8fc6c5f216"  >
</g>
<g transform="matrix(1 0 0 1 540 540)" id="6961d9fb-76dc-4087-a3cf-bb236de88d22"  >
<rect style="stroke: none; stroke-width: 1; stroke-dasharray: none; stroke-linecap: butt; stroke-dashoffset: 0; stroke-linejoin: miter; stroke-miterlimit: 4; fill: rgb(255,255,255); fill-rule: nonzero; opacity: 1; visibility: hidden;" vector-effect="non-scaling-stroke"  x="-540" y="-540" rx="0" ry="0" width="1080" height="1080" />
</g>
<g transform="matrix(1 0 0 1 771.69 393.51)"  >
<path style="stroke: none; stroke-width: 1; stroke-dasharray: none; stroke-linecap: butt; stroke-dashoffset: 0; stroke-linejoin: miter; stroke-miterlimit: 4; fill: rgb(42,42,42); fill-rule: nonzero; opacity: 1;" vector-effect="non-scaling-stroke"  transform=" translate(-831.46, -303.84)" d="M 739.66018 492.74054 C 721.0131799999999 503.92369 687.79071 517.93623 653.84089 503.5357 L 631.8949899999999 494.2267 L 675.8730499999999 444.9278 C 603.154783188294 364.7489473009442 603.2799673486672 242.43637348094978 676.1622041373428 162.4065396131055 C 749.0444409260183 82.37670574526123 870.8120148518643 70.84243828871041 957.4246073830886 135.764341859504 C 1044.037199914313 200.68624543029756 1067.1258797727805 320.79991762434383 1010.7555342907635 413.20651315990824 C 954.3851888087465 505.61310869547253 837.0192585826874 540.0459390716903 739.6601799999999 492.7405 Z M 655.3981 303.49354 C 655.2021195891369 352.17634593383 675.347222841949 398.7287767386923 710.9697 431.91149999999993 L 723.10042 443.31104999999997 L 695.42664 474.33234999999996 C 709.8414700000001 471.40761999999995 722.3964100000001 463.60963999999996 728.7625400000001 459.08052 L 737.4976200000001 452.86501 L 746.8923800000001 458.02711999999997 C 772.8611614387225 472.2454889190673 801.991808277153 479.6967046814823 831.59822 479.6937 C 928.7550900000001 479.6937 1007.79834 400.65092999999996 1007.79834 303.49357999999995 C 1007.79834 206.33669999999995 928.7550900000001 127.29345999999995 831.5982200000001 127.29345999999995 C 734.44135 127.29345999999995 655.3981 206.3367 655.3981 303.49358 Z" stroke-linecap="round" />
</g>
<g transform="matrix(1 0 0 1 773.71 393.16)"  >
<path style="stroke: none; stroke-width: 1; stroke-dasharray: none; stroke-linecap: butt; stroke-dashoffset: 0; stroke-linejoin: miter; stroke-miterlimit: 4; fill: rgb(18,18,18); fill-rule: nonzero; opacity: 1;" vector-effect="non-scaling-stroke"  transform=" translate(-831.6, -303.49)" d="M 638.315 303.49358 C 638.315 196.74616 724.8508800000001 110.21034 831.59824 110.21034 C 938.3456 110.21034 1024.88147 196.74616 1024.88147 303.49358 C 1024.88147 410.241 938.34558 496.77681 831.59822 496.77681 C 799.1102457320246 496.82437814102 767.1392244407652 488.6446571879204 738.666 473.00028999999995 C 725.3051 482.50658 692.711 501.46782 660.5117 487.80949 L 699.2711 444.36111 C 660.3249985422225 407.8702257378684 638.2535304583934 356.8637933637036 638.315 303.49357999999995 Z" stroke-linecap="round" />
</g>
<g transform="matrix(1 0 0 1 861.17 393.58)"  >
<path style="stroke: none; stroke-width: 1; stroke-dasharray: none; stroke-linecap: butt; stroke-dashoffset: 0; stroke-linejoin: miter; stroke-miterlimit: 4; fill: rgb(0,0,0); fill-rule: nonzero; opacity: 0.1;" vector-effect="non-scaling-stroke"  transform=" translate(-920.94, -303.91)" d="M 991.95463 303.91244 C 991.95463 202.92313000000001 914.49839 120.03880000000001 815.75451 111.38923 C 821.38458 110.89607 827.07958 110.62922999999999 832.83763 110.62922999999999 C 939.5850399999999 110.62922999999999 1026.12086 197.16505 1026.12086 303.91246 C 1026.12086 410.65987 939.585 497.19568 832.83763 497.19568 C 827.0882799999999 497.19568 821.40316 496.92535999999996 815.78156 496.43327999999997 C 914.51245 487.771 991.95463 404.89246 991.95463 303.91244 Z" stroke-linecap="round" />
</g>
<g transform="matrix(1 0 0 1 326.32 640.32)"  >
<path style="stroke: none; stroke-width: 1; stroke-dasharray: none; stroke-linecap: butt; stroke-dashoffset: 0; stroke-linejoin: miter; stroke-miterlimit: 4; fill: rgb(42,42,42); fill-rule: nonzero; opacity: 1;" vector-effect="non-scaling-stroke"  transform=" translate(-386.09, -550.65)" d="M 386.198 761.25205 C 286.6624909331556 761.298923531369 200.686487129656 691.6506013180357 180.07375167218555 594.2728066249736 C 159.4610162147151 496.8950119319116 209.8411975984965 398.3830870654825 300.85834922204515 358.0941571633399 C 391.87550084559376 317.8052272611973 498.67146782043426 346.7428058582481 556.8976793058544 427.4709178043288 C 615.1238907912744 508.19902975040947 608.8778915043381 618.6696118528828 541.92313 692.3199999999999 L 585.90119 741.6188900000001 L 563.9553000000001 750.92789 C 530.0054700000001 765.32842 496.7830000000001 751.3158900000001 478.1360000000001 740.13273 C 449.47819004192206 754.025320052967 418.04567009525886 761.2457669537041 386.198 761.25205 Z M 386.198 374.6855800000001 C 289.04112999999995 374.6855800000001 209.99787999999998 453.7288300000001 209.99787999999998 550.8857 C 209.99787999999998 648.04305 289.04112999999995 727.08582 386.198 727.08582 C 415.8044110725901 727.0888294657537 444.93505827791347 719.637617048529 470.90383999999995 705.41925 L 480.29859999999996 700.25714 L 489.03367999999995 706.4726400000001 C 495.39980999999995 711.0017700000001 507.95474999999993 718.79975 522.3695799999999 721.7244700000001 L 494.6957999999999 690.7031800000001 L 506.8265199999999 679.3036300000001 C 542.4489874387936 646.1209123940257 562.5940895896572 599.5684950108218 562.39812 550.8857 C 562.39808 453.72883 483.35484 374.68558 386.198 374.68558 Z" stroke-linecap="round" />
</g>
<g transform="matrix(1 0 0 1 332.11 640.55)"  >
<path style="stroke: none; stroke-width: 1; stroke-dasharray: none; stroke-linecap: butt; stroke-dashoffset: 0; stroke-linejoin: miter; stroke-miterlimit: 4; fill: rgb(18,18,18); fill-rule: nonzero; opacity: 1;" vector-effect="non-scaling-stroke"  transform=" translate(-386.2, -550.89)" d="M 579.48107 550.8855 C 579.48107 444.13807999999995 492.94519 357.60226 386.19783000000007 357.60226 C 279.4504700000001 357.60226 192.9146 444.13808 192.9146 550.8855 C 192.9146 657.63292 279.45048 744.16873 386.19783 744.16873 C 418.6858040503479 744.2162964021257 450.65682491500195 736.0365755581723 479.1300499999999 720.39221 C 492.49095 729.8985 525.08505 748.85974 557.2843399999999 735.20141 L 518.52494 691.753 C 557.4710449036694 655.2621280746313 579.542523461262 604.2557074617795 579.48107 550.8855 Z" stroke-linecap="round" />
</g>
<g transform="matrix(1 0 0 1 238.33 639.58)"  >
<path style="stroke: none; stroke-width: 1; stroke-dasharray: none; stroke-linecap: butt; stroke-dashoffset: 0; stroke-linejoin: miter; stroke-miterlimit: 4; fill: rgb(0,0,0); fill-rule: nonzero; opacity: 0.1;" vector-effect="non-scaling-stroke"  transform=" translate(-298.1, -549.91)" d="M 227.08084 549.90929 C 227.08084 448.91997000000003 304.53708 366.03565000000003 403.28096 357.38607 C 397.65089 356.89292 391.95589 356.62607 386.19784 356.62607 C 279.45043 356.62607 192.91460999999998 443.16189 192.91460999999998 549.90931 C 192.91460999999998 656.6567299999999 279.45043 743.19254 386.19784 743.19254 C 391.94719 743.19254 397.63230999999996 742.92222 403.25390999999996 742.43014 C 304.523 733.76785 227.08084 650.88931 227.08084 549.90929 Z" stroke-linecap="round" />
</g>
<g transform="matrix(1 0 0 1 772.06 359.27)"  >
<path style="stroke: none; stroke-width: 1; stroke-dasharray: none; stroke-linecap: butt; stroke-dashoffset: 0; stroke-linejoin: miter; stroke-miterlimit: 4; fill: rgb(42,42,42); fill-rule: nonzero; opacity: 1;" vector-effect="non-scaling-stroke"  transform=" translate(-831.83, -268.57)" d="M 876.97323 242.08764 C 864.32702 220.71946 839.30751 219.72364 839.30751 219.72364 C 839.30751 219.72364 814.92742 216.60593999999998 799.28774 249.14994 C 784.71032 279.48362 764.59162 308.77141 796.0488 315.8723 L 801.7308800000001 298.18712 L 805.24976 317.18894 C 809.7286586497846 317.51107186054975 814.2218301344463 317.587853330209 818.70912 317.41894 C 852.39721 316.33129 884.48004 317.73716 883.44702 305.64845 C 882.07379 289.57823 889.14142 262.6481 876.97323 242.08764 Z" stroke-linecap="round" />
</g>
<g transform="matrix(1 0 0 1 775.29 536.12)"  >
<path style="stroke: none; stroke-width: 1; stroke-dasharray: none; stroke-linecap: butt; stroke-dashoffset: 0; stroke-linejoin: miter; stroke-miterlimit: 4; fill: rgb(42,42,42); fill-rule: nonzero; opacity: 1;" vector-effect="non-scaling-stroke"  transform=" translate(-835.06, -446.45)" d="M 794.25267 429.219 C 793.8812583274168 431.56933288197524 793.3421518210898 433.8900784661453 792.6394799999999 436.16346 C 791.84813 438.38869 790.62637 440.44660999999996 789.9028099999999 442.69480999999996 C 787.59642 449.86103999999995 790.7937599999999 457.85121999999996 795.9004199999999 463.38262999999995 C 800.3289050073854 468.16029812639385 806.0451463632013 471.554613045122 812.3596299999999 473.15613999999994 C 817.0085704582175 474.1509074999162 821.7500064826991 474.64916799648836 826.5041799999999 474.64253999999994 C 839.6505699999999 475.0883299999999 853.1351799999999 475.48715999999996 865.5921799999999 471.2622599999999 C 869.5278374348294 469.89456938280097 873.3292828949114 468.1676009543769 876.9484299999999 466.1031999999999 C 878.0911207569608 465.55878052058716 879.0978433123468 464.7661013860362 879.8951299999999 463.7830099999999 C 880.7296231316619 462.34311373676934 881.1008693330036 460.68132308075764 880.9584799999999 459.0231899999999 C 880.9304799999999 453.4500899999999 879.8006899999999 447.9054099999999 880.0689399999999 442.3386999999999 C 880.2175299999999 439.2553099999999 880.7945999999998 436.1742999999999 880.5105399999999 433.10041999999993 C 879.7049434050188 425.94727186487455 874.4919601339554 420.0716107481669 867.4856699999999 418.4198199999999 C 863.9518999999999 417.6609699999999 860.28667 418.0744699999999 856.6889199999999 418.4203999999999 C 847.3501487089629 419.3177399740095 837.9716101910027 419.73709053859926 828.59002 419.67680999999993 C 819.00443 419.6156199999999 809.47802 418.1523899999999 799.94017 417.9995799999999 C 797.1195399999999 417.9543799999999 797.17652 418.8239499999999 796.27854 421.5537999999999 C 795.4513945386618 424.0662990446629 794.7749024185505 426.6259141231614 794.25267 429.219 Z" stroke-linecap="round" />
</g>
<g transform="matrix(1 0 0 1 776.94 401.79)"  >
<path style="stroke: none; stroke-width: 1; stroke-dasharray: none; stroke-linecap: butt; stroke-dashoffset: 0; stroke-linejoin: miter; stroke-miterlimit: 4; fill: rgb(160,97,106); fill-rule: nonzero; opacity: 1;" vector-effect="non-scaling-stroke"  transform=" translate(-836.71, -312.12)" d="M 821.45577 291.60544 C 820.99513 294.01743999999997 820.4972300000001 296.5176 819.04777 298.49973 C 817.38012 300.78024 814.66108 302.08327 812.8670500000001 304.26573 C 810.16668 307.55082000000004 810.0116800000001 312.17347 810.0005500000001 316.42597 C 809.9903 320.34345 810.06987 324.52187000000004 812.2544800000001 327.77367 C 813.8093313314369 329.79374034712424 815.73906417139 331.4950954653828 817.93803 332.78459 C 826.1307400000001 338.30575 834.9838100000001 343.92604 844.86159 344.10812 C 848.9543199999999 344.18356 853.34264 343.12660999999997 856.03559 340.04375 C 857.198309524671 338.59567875029563 858.1125430744125 336.9646122400324 858.741 335.21708 C 861.2666647199437 328.9910781273956 862.7976934730921 322.4066758722868 863.278 315.70507999999995 C 863.6419413935212 312.55458619949235 863.347831803803 309.3628445465561 862.41429 306.33191 C 861.21429 302.98623 858.7879700000001 300.2334 857.18438 297.06133 C 855.2888086597899 293.2893781304216 854.5955166454615 289.02685626544684 855.198 284.8486 C 855.2777964342483 284.55438986739273 855.2531582587069 284.2416172049373 855.12828 283.96353 C 854.8609206477839 283.66181046898583 854.467816541489 283.50252493967594 854.06584 283.53303 L 834.47984 282.12302999999997 C 832.6557172495704 282.03237763301297 830.8393066346412 281.824579323404 829.04184 281.50091999999995 C 827.986 281.28622999999993 825.1972999999999 279.78669999999994 824.19055 280.18543999999997 C 822.32686 280.92357 821.83776 289.6053 821.45577 291.60544 Z" stroke-linecap="round" />
</g>
<g transform="matrix(1 0 0 1 776.94 402.4)"  >
<path style="stroke: none; stroke-width: 1; stroke-dasharray: none; stroke-linecap: butt; stroke-dashoffset: 0; stroke-linejoin: miter; stroke-miterlimit: 4; fill: rgb(0,0,0); fill-rule: nonzero; opacity: 0.1;" vector-effect="non-scaling-stroke"  transform=" translate(-836.71, -312.73)" d="M 821.45577 292.21683 C 820.99513 294.62883 820.4972300000001 297.12898 819.04777 299.11112 C 817.38012 301.39162000000005 814.66108 302.69465 812.8670500000001 304.87712000000005 C 810.16668 308.16222000000005 810.0116800000001 312.78487000000007 810.0005500000001 317.03736000000004 C 809.9903 320.95484000000005 810.06987 325.13326000000006 812.2544800000001 328.38507000000004 C 813.8093208108083 330.4051416940834 815.7390434591322 332.10650020257214 817.938 333.396 C 826.13071 338.91716 834.98378 344.53745000000004 844.8615599999999 344.71953 C 848.9542899999999 344.79497000000003 853.3426099999999 343.73802 856.0355599999999 340.65516 C 857.1982816795365 339.20709020469377 858.1125154396076 337.5760233191859 858.74097 335.82849000000004 C 861.2666345613551 329.60248807713305 862.7976633085971 323.0180858474249 863.27797 316.31649000000004 C 863.6419119777156 313.1659962062464 863.347802376926 309.9742544331587 862.41426 306.94332 C 861.21426 303.59763000000004 858.78794 300.84481000000005 857.18435 297.67273 C 855.288787684251 293.90077530217343 854.5955061027253 289.6382532042817 855.198 285.46 C 855.277795712413 285.16579314102626 855.2531575251608 284.8530238637828 855.12828 284.57493999999997 C 854.860925360778 284.27321286373854 854.4678189452665 284.1139226987016 854.06584 284.14442999999994 L 834.47984 282.7344299999999 C 832.655716843991 282.64378258136423 830.8393059121801 282.43598423550384 829.04184 282.1123199999999 C 827.986 281.8976399999999 825.1972999999999 280.3981099999999 824.19055 280.7968499999999 C 822.32686 281.535 821.83776 290.21668 821.45577 292.21683 Z" stroke-linecap="round" />
</g>
<g transform="matrix(1 0 0 1 780.42 355.17)"  >
<circle style="stroke: none; stroke-width: 1; stroke-dasharray: none; stroke-linecap: butt; stroke-dashoffset: 0; stroke-linejoin: miter; stroke-miterlimit: 4; fill: rgb(160,97,106); fill-rule: nonzero; opacity: 1;" vector-effect="non-scaling-stroke"  cx="0" cy="0" r="28.73502" />
</g>
<g transform="matrix(1 0 0 1 789.82 456.74)"  >
<path style="stroke: none; stroke-width: 1; stroke-dasharray: none; stroke-linecap: butt; stroke-dashoffset: 0; stroke-linejoin: miter; stroke-miterlimit: 4; fill: rgb(255,255,255); fill-rule: nonzero; opacity: 1;" vector-effect="non-scaling-stroke"  transform=" translate(-849.59, -367.08)" d="M 825.486 329.85627 C 826.905499500161 331.50012891866965 828.616636643927 332.8674329922016 830.53317 333.88927 C 832.5311589369436 334.71503761253723 834.6768843919795 335.12358695707 836.83853 335.08982000000003 C 842.01828 335.23552 847.63353 334.28641000000005 851.23678 330.56252 C 855.8815999999999 325.76223 855.72862 318.01981 859.36937 312.41962 C 859.6627173622908 311.9118816664801 860.0630429530105 311.4740619137676 860.54256 311.13655 C 861.1532497962096 310.80407474526226 861.843405158201 310.64539317520286 862.53798 310.67776 C 867.13614 310.63475999999997 871.14158 313.61701999999997 874.75649 316.45909 C 876.4578649638017 317.62995657115874 877.9179822584197 319.1173431862339 879.05717 320.84009000000003 C 879.7719328590913 322.2347306135054 880.2614139259134 323.73372862168304 880.5074400000001 325.28143000000006 C 882.30132 334.03837000000004 882.8822900000001 342.99204000000003 883.45887 351.9122100000001 C 883.7773400000001 356.8392100000001 884.0959700000001 361.7709700000001 884.0723 366.70821000000007 C 883.9943000000001 382.97431000000006 880.21355 398.96839000000006 876.45383 414.7942100000001 C 875.9693900000001 416.8333600000001 875.3064400000001 419.1126500000001 873.45203 420.0893900000001 C 872.6254248266152 420.46105024867455 871.7375923122534 420.6777444007566 870.83271 420.7286900000001 C 860.06415 421.9933700000001 849.27331 423.25959000000006 838.43202 423.4265600000001 Q 832.08584 423.5243000000001 825.74519 423.11932000000013 C 825.0175105816398 423.10970932988494 824.2960364815413 422.983935122304 823.60803 422.74675000000013 C 822.6742636732082 422.2984010457469 821.8718169150563 421.6169493348743 821.27812 420.76815000000016 C 815.4139399999999 413.3785100000002 815.06779 403.1622100000002 815.10528 393.7285400000002 Q 815.24274 359.13178000000016 817.57747 324.5903000000002 C 817.70598 322.6896100000002 817.7340399999999 320.3813000000002 816.36447 318.8860700000002 C 819.0311491101799 322.8381298407236 822.0869060989402 326.5132002859338 825.486 329.85627 Z" stroke-linecap="round" />
</g>
<g transform="matrix(1 0 0 1 743.18 448.7)"  >
<path style="stroke: none; stroke-width: 1; stroke-dasharray: none; stroke-linecap: butt; stroke-dashoffset: 0; stroke-linejoin: miter; stroke-miterlimit: 4; fill: rgb(255,255,255); fill-rule: nonzero; opacity: 1;" vector-effect="non-scaling-stroke"  transform=" translate(-802.95, -359.03)" d="M 819.39936 296.67731 C 818.42885 298.43411 811.2737 302.79652 809.89236 304.25257999999997 C 802.1743600000001 312.38777 788.08802 312.08250999999996 781.02936 320.79594 C 778.54591 323.86159999999995 777.25563 327.71356999999995 776.3066699999999 331.5431 C 774.9645399999999 336.95930999999996 774.24789 342.86616999999995 776.49623 347.97319 C 778.65962 352.88728 783.2138199999999 356.28461 786.3058199999999 360.67419 C 789.7008199999999 365.49385 791.2272499999999 371.34592000000004 792.6900899999999 377.05688000000004 C 793.7701999999999 381.27366000000006 794.8592299999999 385.59488000000005 794.43859 389.92741 C 793.96032 394.85341 791.57659 399.36388 790.1691599999999 404.1087 C 788.7617299999998 408.85352 788.5188199999999 414.5047 791.7729999999999 418.23353 C 794.16374 420.97301 797.9136699999999 422.05904999999996 801.4979999999999 422.66999 C 806.0887972054879 423.35979396547083 810.7181244757998 423.76280186173125 815.3590599999999 423.87667 C 819.4563999999999 424.05767 823.9728599999999 424.0929 827.1226999999999 421.46621 C 829.6080799999999 419.39362 830.6882999999999 416.0303 830.8281099999999 412.79721 C 830.9679199999999 409.56412 830.2952499999999 406.35957 829.87389 403.15097000000003 C 829.4371 399.82476 829.26924 396.46958 829.1288 393.11777 Q 828.18354 370.559 828.8707999999999 347.97121 C 829.1016470110675 344.84149862415546 828.9481702849583 341.6952929059745 828.4137999999999 338.60291 C 827.5350799999999 334.57469000000003 825.358 330.97471 823.54144 327.27351 C 819.9109081390578 320.3025655268577 818.2664996224669 312.4677502747398 818.7879399999999 304.62537 C 819.33813 296.56585 822.85284 290.42574 819.39936 296.67731 Z" stroke-linecap="round" />
</g>
<g transform="matrix(1 0 0 1 814.99 450.66)"  >
<path style="stroke: none; stroke-width: 1; stroke-dasharray: none; stroke-linecap: butt; stroke-dashoffset: 0; stroke-linejoin: miter; stroke-miterlimit: 4; fill: rgb(255,255,255); fill-rule: nonzero; opacity: 1;" vector-effect="non-scaling-stroke"  transform=" translate(-874.76, -360.98)" d="M 859.75067 297.28869 C 861.22892 298.80800999999997 866.25199 299.30886999999996 868.13244 300.28734 C 869.901249901082 301.104444692544 871.7469844936785 301.74349686383545 873.6423599999999 302.19505 C 880.5016128494593 304.17385049298196 887.0260036981828 307.16831246591903 892.9986399999999 311.07889 C 894.2396153928968 311.8049234869806 895.3367653729226 312.7526029247618 896.2355399999999 313.87481 C 897.1823727948421 315.4150922324509 897.7925831881897 317.1382837972903 898.0260799999999 318.93117 C 898.9468499999998 323.49217 899.8722099999999 328.10817000000003 899.6652999999999 332.75655 C 899.4456599999999 337.69078 897.9593799999999 342.46955 896.4849099999999 347.18347 L 890.97553 364.797 C 886.8631700000001 377.94426000000004 882.72472 391.22095 881.56753 404.94767 C 880.9273446156408 412.55535745881775 881.2119750919344 420.212604284723 882.41519 427.75177 C 882.6440340500288 428.49374859440576 882.5428081448164 429.2983031190119 882.1373000000001 429.96047000000004 C 881.7743291341961 430.31925421879896 881.2967642410457 430.53899459931256 880.7881500000001 430.58125000000007 C 878.1290900000001 430.99703000000005 875.5557600000001 429.64125000000007 873.1465700000001 428.44151000000005 C 865.783030863506 424.77705600937844 857.9245820988483 422.2057149191183 849.8191500000001 420.80861000000004 C 852.9864937554587 416.23128156518527 855.430257622883 411.19360850774353 857.0645700000001 405.87261000000007 C 857.9927260037348 402.4939291918157 858.72365601006 399.06414191720677 859.2536600000001 395.6006100000001 L 861.8165500000001 380.77753000000007 C 862.8592511290836 375.3596188750652 863.5932707340583 369.88683900033635 864.0150600000002 364.38565000000006 C 864.208806684805 362.3211749179656 864.0885307865342 360.23925856060544 863.6583300000002 358.21083000000004 C 863.0676966694197 356.2805056346506 862.2834572367968 354.4148261706692 861.3175700000002 352.64224 C 857.0937800000002 343.85633 855.1119700000002 333.83002 856.7738600000001 324.22424 C 857.5011600000001 320.02047 858.9145200000002 315.81108 858.3251700000001 311.58577 C 857.7585300000001 307.52331000000004 858.34742 304.36606 857.3050900000001 300.34566 C 853.02545 283.83826 856.96957 294.43037 859.75067 297.28869 Z" stroke-linecap="round" />
</g>
<g transform="matrix(1 0 0 1 728.5 453.12)"  >
<path style="stroke: none; stroke-width: 1; stroke-dasharray: none; stroke-linecap: butt; stroke-dashoffset: 0; stroke-linejoin: miter; stroke-miterlimit: 4; fill: rgb(255,255,255); fill-rule: nonzero; opacity: 1;" vector-effect="non-scaling-stroke"  transform=" translate(-788.27, -363.45)" d="M 780.95626 334.68718 C 779.03069 338.68302 775.8114300000001 342.08711 774.7157500000001 346.38526 C 774.2894020399639 348.3940320579121 774.1067146960798 350.44686822934995 774.17164 352.49936 C 773.9815211886845 355.5926472955644 774.2877274193972 358.69642724759683 775.0786400000001 361.69293000000005 C 775.69018 363.5883400000001 776.6850800000001 365.33633000000003 777.4018100000001 367.19452000000007 C 778.4008994395459 369.7905728725104 778.8460010985988 372.56688220834803 778.7085300000001 375.34515000000005 C 778.5151600000002 379.19415000000004 777.2075300000001 382.93037000000004 777.1053600000001 386.78287000000006 C 776.9446600000001 392.84125000000006 779.7468300000002 398.5366200000001 782.4810900000001 403.94527000000005 C 783.8741233703249 400.4955226040165 786.7187092963687 397.8364657935565 790.2544375132816 396.6789144801967 C 793.7901657301943 395.5213631668369 797.6565373672663 395.9833399800483 800.82 397.94135 C 801.4462191874776 397.17226763498707 801.7432951135241 396.1869564688762 801.64656 395.1999 Q 801.94971 384.6569 802.23141 374.11335 C 802.52741 363.24245 802.80934 352.22630000000004 800.30862 341.6428 C 799.17954 336.86433 797.42271 332.10432000000003 794.2020600000001 328.39802000000003 C 792.5062100000001 326.44646000000006 786.7492400000001 321.30602000000005 783.96545 323.49225 C 782.71357 324.47541 783.00615 327.15171000000004 782.8077900000001 328.50692000000004 C 782.5083775773427 330.6491514138802 781.8840237349144 332.73319492287317 780.95626 334.68718 Z" stroke-linecap="round" />
</g>
<g transform="matrix(1 0 0 1 824.24 453.43)"  >
<path style="stroke: none; stroke-width: 1; stroke-dasharray: none; stroke-linecap: butt; stroke-dashoffset: 0; stroke-linejoin: miter; stroke-miterlimit: 4; fill: rgb(255,255,255); fill-rule: nonzero; opacity: 1;" vector-effect="non-scaling-stroke"  transform=" translate(-884, -363.76)" d="M 900.22818 323.17211 C 901.0027461079745 326.0534907363197 901.334325021948 329.03596441720094 901.2115299999999 332.01711 Q 901.26703 341.1312 900.9699599999999 350.24291 C 901.0002492654005 353.35844140730615 900.6018693558575 356.46333421734533 899.7860199999999 359.4703 C 899.1641799999999 361.42573 898.2045699999999 363.25943 897.5623599999999 365.2083 C 895.6376999999999 371.04886 896.6892799999999 377.3835 896.8543599999999 383.53079 C 896.9708707717547 385.5204221006041 896.8010746299856 387.5164756162877 896.3501699999999 389.45784000000003 C 895.3344699999999 393.26867000000004 892.6048499999999 396.34795 890.6996999999999 399.80115 C 888.89033 403.08074 887.7985699999999 406.7568 885.6375899999999 409.81615 C 883.4766099999999 412.8755 879.7357299999999 415.29969 876.10979 414.3605 C 873.36245 413.64889 871.41031 411.21711 870.06002 408.72093 C 867.1135223106544 403.23257998816234 866.1057982867795 396.9103449670481 867.20002 390.77793 C 868.55563 383.31687000000005 872.93823 376.69793000000004 874.51878 369.28126000000003 C 876.68923 359.09654 873.39052 348.5867 873.48868 338.17373000000003 C 873.4439135250658 336.54146718343236 873.6653122407206 334.91281026979726 874.14418 333.35173000000003 C 874.97318 330.97321000000005 876.75379 329.07373 878.39871 327.16618000000005 C 880.4542215969282 324.7822714440224 882.363725097436 322.27626975396913 884.1167700000001 319.66189 C 885.2943700000001 317.90565000000004 886.8937700000001 313.38862 888.9815500000001 313.01304000000005 C 893.64279 312.17448 899.07172 319.57089 900.22818 323.17211 Z" stroke-linecap="round" />
</g>
<g transform="matrix(1 0 0 1 728.4 547.07)"  >
<path style="stroke: none; stroke-width: 1; stroke-dasharray: none; stroke-linecap: butt; stroke-dashoffset: 0; stroke-linejoin: miter; stroke-miterlimit: 4; fill: rgb(42,42,42); fill-rule: nonzero; opacity: 1;" vector-effect="non-scaling-stroke"  transform=" translate(-788.17, -457.4)" d="M 756.76953 424.68946 C 754.191910604163 424.0416044930293 751.5360237760011 423.75926932771085 748.87981 423.85074 C 743.2341410763801 424.16281151985544 737.9950396586656 426.8867263264445 734.4966586828599 431.3288313203357 C 730.9982777070541 435.77093631422696 729.5782281852896 441.5025464627269 730.59813 447.06408999999996 C 731.2417705126156 450.0421635886953 732.2938296074043 452.9170171220009 733.72446 455.60708999999997 C 735.81682 459.85332 738.3263400000001 464.08980999999994 742.19985 466.81089 C 744.5337153426414 468.30706728729143 747.0467577874003 469.5032905159384 749.67963 470.37131 L 770.0807 478.05674999999997 C 773.08192 479.18737 776.0835999999999 480.31813999999997 779.11453 481.36650999999995 C 794.3416283675842 486.6297868279116 810.2170120161486 489.78584332129395 826.2993899999999 490.74694999999997 C 831.1931456146832 491.20548822725215 836.1274613046176 490.95545846046883 840.9497999999999 490.00458999999995 C 842.1155340220952 489.85251950673336 843.184029379609 489.2752508934764 843.9501899999999 488.38358999999997 C 844.3390568047602 487.7060633353852 844.5683270257108 486.9487923934749 844.6205699999999 486.16934999999995 L 845.8759399999999 477.38093999999995 C 846.1569266526108 476.1571177205969 846.1201958030382 474.88176203647015 845.7692399999999 473.67614 C 845.1941599999999 472.19914 843.7526499999999 471.26998999999995 842.3782399999999 470.48058 C 828.96598 462.77723999999995 813.3055599999999 458.52736999999996 802.0162399999999 447.95466999999996 C 799.3585599999999 445.46567 797.13451 441.52038999999996 793.90545 439.82966999999996 C 790.24375 437.91241999999994 785.9314499999999 436.81818 782.14652 435.05145999999996 C 773.87231 431.18919 765.73718 426.75085 756.76953 424.68946 Z" stroke-linecap="round" />
</g>
<g transform="matrix(1 0 0 1 734.23 536.89)"  >
<path style="stroke: none; stroke-width: 1; stroke-dasharray: none; stroke-linecap: butt; stroke-dashoffset: 0; stroke-linejoin: miter; stroke-miterlimit: 4; fill: rgb(0,0,0); fill-rule: nonzero; opacity: 0.1;" vector-effect="non-scaling-stroke"  transform=" translate(-794.01, -447.22)" d="M 777.137 436.5375 C 784.3479199999999 438.79703 814.7924399999999 454.45111 820.01072 459.91667 C 819.31125 460.16867 795.5792 446.86888 794.8670999999999 446.65516 C 788.3395728356301 444.86245614496914 781.9471856314861 442.60976889588994 775.7379 439.914 C 774.50127 439.342 767.704 436.65376 768.0118299999999 435.09346 C 768.35919 433.33273 775.85689 436.13637 777.137 436.5375 Z" stroke-linecap="round" />
</g>
<g transform="matrix(1 0 0 1 793.3 575.65)"  >
<path style="stroke: none; stroke-width: 1; stroke-dasharray: none; stroke-linecap: butt; stroke-dashoffset: 0; stroke-linejoin: miter; stroke-miterlimit: 4; fill: rgb(160,97,106); fill-rule: nonzero; opacity: 1;" vector-effect="non-scaling-stroke"  transform=" translate(-853.07, -485.98)" d="M 867.09778 495.30484 C 867.506985953457 495.3348475761569 867.9131743028929 495.2153053759161 868.2408899999999 494.96842000000004 C 868.5312712205738 494.59544914581045 868.6599745793695 494.12161690606604 868.5981899999999 493.65299000000005 L 868.5645999999999 481.68006 C 865.1216499999999 480.03966 861.27045 479.51386 857.4902999999999 479.00858000000005 L 839.85271 476.651 C 840.25794 476.70516000000003 837.09498 484.24764 837.57996 485.25459 C 838.4347300000001 487.02934 844.96714 488.60225 846.81074 489.44021 C 853.21974 492.3533 859.87952 495.55585 867.09778 495.30484 Z" stroke-linecap="round" />
</g>
<g transform="matrix(1 0 0 1 764.29 576.65)"  >
<path style="stroke: none; stroke-width: 1; stroke-dasharray: none; stroke-linecap: butt; stroke-dashoffset: 0; stroke-linejoin: miter; stroke-miterlimit: 4; fill: rgb(160,97,106); fill-rule: nonzero; opacity: 1;" vector-effect="non-scaling-stroke"  transform=" translate(-824.06, -486.98)" d="M 811.76011 481.63863 C 808.42998 482.16904 804.71311 482.6379 802.5564700000001 485.23019999999997 C 799.8215500000001 488.51757999999995 800.9858300000001 493.41819999999996 802.2904700000001 497.49064999999996 C 802.4511571811505 498.5525642283551 803.034701095256 499.50427002636735 803.9082457201805 500.1290915903633 C 804.7817903451052 500.75391315435934 805.8709916165751 500.99867429483703 806.9278700000001 500.80764999999997 C 809.9648700000001 500.99996 813.1969300000001 501.15065 815.8504900000001 499.66094 C 817.0524245143513 498.86665411708657 818.2095485558538 498.00655622679983 819.3165700000002 497.08457999999996 C 821.2733495154677 495.78251984830973 823.4243021426374 494.79913136073014 825.6892300000002 494.17107999999996 C 829.8529456937364 492.86138348839927 834.1389535788531 491.97810802663395 838.4812300000002 491.53486 C 840.1922352129113 491.45691550977847 841.8860119398666 491.1583431250032 843.5205400000002 490.64655 C 845.1754298372738 490.1132158326517 846.4874278792612 488.8394146357722 847.0694100000002 487.20099999999996 C 847.6840700000001 485.02518 846.4194800000001 482.80684999999994 845.2066600000002 480.89867 C 843.8091920698348 478.3994234946573 841.9950648931348 476.15726036792677 839.8425500000002 474.26892 C 836.5561300000002 471.71608 834.9304300000002 473.67579 831.6199800000002 475.30940999999996 C 825.3543292408152 478.40178252999067 818.6596663968857 480.53533093514426 811.76011 481.63863 Z" stroke-linecap="round" />
</g>
<g transform="matrix(1 0 0 1 726.12 582.13)"  >
<path style="stroke: none; stroke-width: 1; stroke-dasharray: none; stroke-linecap: butt; stroke-dashoffset: 0; stroke-linejoin: miter; stroke-miterlimit: 4; fill: rgb(42,42,42); fill-rule: nonzero; opacity: 1;" vector-effect="non-scaling-stroke"  transform=" translate(-785.89, -492.46)" d="M 803.05747 484.63824 L 781.9123599999999 478.38848 C 779.3761514568066 477.5053090908029 776.7260328407832 476.99176430719956 774.04351 476.86364000000003 C 771.3263336730182 476.75219560795813 768.6929355515877 477.8171628216916 766.81707 479.78607000000005 C 765.17742 481.71046000000007 764.7080699999999 484.34058000000005 764.2993499999999 486.83551000000006 L 763.4249499999999 492.17251000000005 C 762.8418594195074 494.8630598791846 762.6767295325668 497.62737830395497 762.9353699999998 500.36821000000003 C 763.2205375090861 503.14586604048804 764.7703333076789 505.63694396884705 767.1360499999998 507.12021000000004 C 770.0621199999998 508.71663000000007 773.6483999999998 507.93689000000006 776.9140499999999 507.26914000000005 C 783.5104532515921 505.92082011782 790.2198940840243 505.20133022176026 796.9521999999998 505.12034000000006 C 799.4831999999998 505.0900700000001 802.1378199999998 505.1217700000001 804.3742699999998 503.93647000000004 C 807.0098424072117 502.37401168402084 808.7027107268742 499.60979087722444 808.8966599999998 496.55203000000006 C 809.31277 491.993 807.79319 486.038 803.05747 484.63824 Z" stroke-linecap="round" />
</g>
<g transform="matrix(1 0 0 1 825.26 580.1)"  >
<path style="stroke: none; stroke-width: 1; stroke-dasharray: none; stroke-linecap: butt; stroke-dashoffset: 0; stroke-linejoin: miter; stroke-miterlimit: 4; fill: rgb(42,42,42); fill-rule: nonzero; opacity: 1;" vector-effect="non-scaling-stroke"  transform=" translate(-885.03, -490.43)" d="M 875.4096 479.192 C 878.1507499999999 478.71158 880.5699599999999 477.15367000000003 883.1966 476.2341 C 886.8937 474.93975 890.90017 474.93977 894.81727 474.95410000000004 C 896.2575324568784 474.82250892659977 897.7049926101191 475.1123949392925 898.9835 475.78848000000005 C 900.7089100000001 476.93717000000004 901.1511300000001 479.23595000000006 901.4445000000001 481.28790000000004 L 903.2146 493.66818000000006 C 903.6880034890714 495.9779559672976 903.7370021579304 498.35461505233303 903.3592 500.68194000000005 C 902.83989 502.97618000000006 901.27608 505.18794 898.99947 505.7798000000001 C 896.23447 506.4986200000001 893.52384 504.7323400000001 890.91314 503.5720500000001 C 884.38791 500.6720500000001 876.80272 501.4132300000001 869.99899 499.2457100000001 C 868.6833930291383 498.98198730481124 867.5438843809541 498.1671221220728 866.86899 497.0074400000001 C 866.6362680519588 496.31981281881156 866.553242607472 495.590378151097 866.62548 494.86804000000006 C 866.74199 490.88865000000004 865.90268 485.45472000000007 867.1007500000001 481.6515600000001 C 868.17819 478.23119 872.34978 479.192 875.4096 479.192 Z" stroke-linecap="round" />
</g>
<g transform="matrix(1 0 0 1 831.69 540)"  >
<path style="stroke: none; stroke-width: 1; stroke-dasharray: none; stroke-linecap: butt; stroke-dashoffset: 0; stroke-linejoin: miter; stroke-miterlimit: 4; fill: rgb(42,42,42); fill-rule: nonzero; opacity: 1;" vector-effect="non-scaling-stroke"  transform=" translate(-889.4, -457.09)" d="M 920.15727 419.70642 C 924.382386708895 418.64693764134535 928.7623144719903 418.3476871612593 933.09227 418.82266 C 936.55027 419.20365999999996 940.1131399999999 420.16586 942.6379 422.55933999999996 C 945.7108999999999 425.47254999999996 946.6982399999999 429.97788999999995 946.7806099999999 434.21146999999996 C 946.9157023527861 442.64372216772296 944.1189879996161 450.8613068668783 938.8681799999999 457.46056 C 937.5859649454708 459.12970012491525 936.0611746924931 460.5975531362189 934.3444699999999 461.81534999999997 C 932.4925674357048 462.97380288662714 930.5188127831525 463.92495689792037 928.4588399999999 464.65164 L 882.7715 482.67206 C 870.75217 487.41283999999996 858.6904199999999 492.16735 846.15361 495.29271 C 845.4611533624399 495.6269975105116 844.6630999562012 495.6677126254614 843.9402178360936 495.40563291427856 C 843.2173357159859 495.14355320309573 842.6307972555222 494.60085660812626 842.31346 493.90047 C 838.3105254762635 488.1826431620068 834.952310786682 482.039599984198 832.30007 475.58339 C 832.0451905536678 475.27200228710507 831.9581042862253 474.8559171058016 832.0667143104308 474.4684513620943 C 832.1753243346362 474.08098561838705 832.465993813197 473.77078866432294 832.84559 473.63725 L 865.16059 455.07003 C 867.5301005310469 453.83408572206434 869.7390277845715 452.312103248365 871.7378699999999 450.53819 C 873.1344530686611 449.1847159131082 874.2780192037363 447.59263802010355 875.1146799999999 445.83698 C 875.7845199999999 444.43789 875.8469999999999 441.13626999999997 876.7026 440.10213 C 877.54031 439.08961999999997 880.40598 439.00882 881.72948 438.61059 C 883.596049431186 438.0388390642975 885.4239884947825 437.3478480765199 887.20202 436.54188 C 894.4306499999999 433.30803 900.86763 428.60940999999997 907.79725 424.82288 C 911.6838815592423 422.6006921293137 915.8371580289194 420.88143334769006 920.15727 419.70642 Z" stroke-linecap="round" />
</g>
<g transform="matrix(1 0 0 1 822.77 540)"  >
<path style="stroke: none; stroke-width: 1; stroke-dasharray: none; stroke-linecap: butt; stroke-dashoffset: 0; stroke-linejoin: miter; stroke-miterlimit: 4; fill: rgb(0,0,0); fill-rule: nonzero; opacity: 0.1;" vector-effect="non-scaling-stroke"  transform=" translate(-879.45, -448.66)" d="M 901.83754 433.57235 C 896.28571 437.74215999999996 889.09707 441.57516999999996 883.59462 445.85485 C 881.71669 447.31546 850.41118 464.91574 849.96853 467.25327 C 855.10201 468.11827 887.80274 445.24159 892.4814 442.95885999999996 C 897.16006 440.67612999999994 901.30754 437.45701999999994 905.41733 434.26165 C 906.46467 433.44734 910.90333 430.99937 907.89671 430.08957999999996 C 906.203 429.57707 903.088 432.73874 901.83754 433.57235 Z" stroke-linecap="round" />
</g>
<g transform="matrix(1 0 0 1 779.24 425.78)"  >
<path style="stroke: none; stroke-width: 1; stroke-dasharray: none; stroke-linecap: butt; stroke-dashoffset: 0; stroke-linejoin: miter; stroke-miterlimit: 4; fill: rgb(208,205,225); fill-rule: nonzero; opacity: 1;" vector-effect="non-scaling-stroke"  transform=" translate(-839, -336.11)" d="M 863.63669 297.69255 L 814.902 297.69255 C 810.7789260106204 297.6925555228333 807.4365155228334 301.0349660106203 807.43651 305.15803999999997 L 807.43651 307.89183999999995 L 806.90696 307.89183999999995 L 806.90696 314.00566999999995 L 807.43651 314.00566999999995 L 807.43651 318.28535999999997 L 806.90696 318.28535999999997 L 806.90696 321.95365999999996 L 807.43651 321.95365999999996 L 807.43651 367.065 C 807.4365155228334 371.1880739893797 810.7789260106204 374.5304844771667 814.902 374.53049 L 863.6367300000001 374.53049 C 867.7598039893797 374.5304844771667 871.1022144771667 371.1880739893797 871.1022200000001 367.065 L 871.1022200000001 305.158 C 871.1021923858482 301.0349260106254 867.7597639894338 297.6925334313964 863.63669 297.69255 Z" stroke-linecap="round" />
</g>
<g transform="matrix(1 0 0 1 779.25 334.99)"  >
<polygon style="stroke: none; stroke-width: 1; stroke-dasharray: none; stroke-linecap: butt; stroke-dashoffset: 0; stroke-linejoin: miter; stroke-miterlimit: 4; fill: rgb(42,42,42); fill-rule: nonzero; opacity: 1;" vector-effect="non-scaling-stroke"  points="32.37,-5.3 7.65,-18.24 -26.48,-12.95 -33.55,18.24 -15.97,17.57 -11.06,6.11 -11.06,17.38 -2.94,17.07 1.76,-1.18 4.71,18.24 33.55,17.66 32.37,-5.3 " />
</g>
<g transform="matrix(1 0 0 1 743.41 468.26)"  >
<path style="stroke: none; stroke-width: 1; stroke-dasharray: none; stroke-linecap: butt; stroke-dashoffset: 0; stroke-linejoin: miter; stroke-miterlimit: 4; fill: rgb(160,97,106); fill-rule: nonzero; opacity: 1;" vector-effect="non-scaling-stroke"  transform=" translate(-803.18, -378.6)" d="M 787.42312 415.66632 C 788.5415049847107 417.5670874734219 790.1304712800337 419.147867641082 792.0369900000001 420.25642 C 794.5717902463863 421.41411551331845 797.4992918522556 421.3356521438998 799.9684400000001 420.04384 C 802.4019195211605 418.7390425451066 804.3938304009464 416.74193250731764 805.6922800000001 414.30505999999997 C 808.3786500000001 409.56132999999994 808.9349900000001 403.88496999999995 808.5997700000001 398.44372999999996 C 808.2645500000002 393.00248999999997 807.1027700000002 387.64457999999996 806.5885200000001 382.21732999999995 C 806.2147200000002 378.27208999999993 806.1843300000002 374.30332999999996 806.1542200000001 370.34051999999997 C 806.0614109691462 369.50719470718775 806.2362165532284 368.6659557486924 806.6533300000001 367.93859 C 807.3715811579781 367.22438005984395 808.3007036529293 366.76040787653506 809.3031700000001 366.61535 C 814.7248500000002 365.00448 818.3236100000001 359.92269999999996 820.9036600000002 354.88953 C 822.6264400000001 351.52871999999996 824.1245400000001 347.85494 823.7923200000001 344.09294 C 823.4601000000001 340.33094 820.7560100000002 336.54107 816.9989300000001 336.1573 C 813.9014800000001 335.84090000000003 811.0414700000001 337.80825000000004 808.8071500000001 339.97667 C 803.1707560542923 345.4810461349152 799.5483640307547 352.72038522681856 798.522 360.53151 C 798.0315400000001 364.35661000000005 798.172 368.28581 797.1316300000001 371.99924000000004 C 794.9101800000001 379.92811000000006 787.9596900000001 384.78935000000007 784.49598 391.92391000000003 C 780.67939 399.78543 782.78589 408.71047 787.42312 415.66632 Z" stroke-linecap="round" />
</g>
<g transform="matrix(1 0 0 1 814.29 443.05)"  >
<path style="stroke: none; stroke-width: 1; stroke-dasharray: none; stroke-linecap: butt; stroke-dashoffset: 0; stroke-linejoin: miter; stroke-miterlimit: 4; fill: rgb(160,97,106); fill-rule: nonzero; opacity: 1;" vector-effect="non-scaling-stroke"  transform=" translate(-874.06, -353.38)" d="M 889.7035 385.37474 C 888.1066696810362 389.0897606729121 885.0761525272361 392.00170584207484 881.30039 393.44906999999995 C 878.9773748448487 394.3821727844306 876.4149110675022 394.5391092210284 873.99539 393.89645999999993 C 871.5633192047205 393.2217626285782 869.5847125683019 391.45199198906175 868.64403 389.10991999999993 C 868.2738506964532 387.94606708265366 868.0708962125523 386.73552530265323 868.04125 385.5145799999999 C 867.6936499999999 380.1676799999999 867.8279699999999 374.6578599999999 869.77015 369.6640499999999 C 870.5192499999999 367.7379399999999 871.52928 365.91124999999994 872.12047 363.9309599999999 C 872.7014683993402 361.64386643301896 872.9987038143947 359.2939467517435 873.00547 356.9342199999999 L 873.64393 342.3452199999999 C 873.749521473132 341.28608371466345 873.6762634339135 340.216731339597 873.4272199999999 339.18188999999995 C 872.7903899999999 337.07093999999995 870.8174899999999 335.69910999999996 869.00727 334.44023999999996 C 864.6354799999999 331.39997999999997 860.3152699999999 327.85231999999996 858.1968499999999 322.96682999999996 C 857.4690499749729 321.4959081640316 857.2083984078243 319.83761986437673 857.44985 318.21434999999997 C 858.0471699999999 315.31735 860.97075 313.44190999999995 863.8603899999999 312.81007 C 867.6809330468398 311.9746837771009 871.6769230268453 312.73600619316306 874.922652856384 314.91767005082045 C 878.1683826859228 317.0993339084778 880.3822129785962 320.51203125467555 881.0512899999999 324.36518 C 881.3371799999999 326.01158000000004 881.3332399999999 327.69332 881.5005799999999 329.35596 C 881.8555299999999 332.88281 882.9751699999999 336.28251 883.6755799999999 339.7573 C 885.4008999999999 348.31642999999997 884.5068899999999 357.16409999999996 886.2130299999999 365.72177999999997 C 887.63961 372.87694 893.01872 377.54576 889.7035 385.37474 Z" stroke-linecap="round" />
</g>
<g transform="matrix(1 0 0 1 780.15 414.06)"  >
<circle style="stroke: none; stroke-width: 1; stroke-dasharray: none; stroke-linecap: butt; stroke-dashoffset: 0; stroke-linejoin: miter; stroke-miterlimit: 4; fill: rgb(0,0,0); fill-rule: nonzero; opacity: 1;" vector-effect="non-scaling-stroke"  cx="0" cy="0" r="6.11383" />
</g>
<g transform="matrix(1 0 0 1 116.31 615.77)"  >
<circle style="stroke: none; stroke-width: 1; stroke-dasharray: none; stroke-linecap: butt; stroke-dashoffset: 0; stroke-linejoin: miter; stroke-miterlimit: 4; fill: rgb(42,42,42); fill-rule: nonzero; opacity: 1;" vector-effect="non-scaling-stroke"  cx="0" cy="0" r="18.03504" />
</g>
<g transform="matrix(1 0 0 1 173.98 673.87)"  >
<polygon style="stroke: none; stroke-width: 1; stroke-dasharray: none; stroke-linecap: butt; stroke-dashoffset: 0; stroke-linejoin: miter; stroke-miterlimit: 4; fill: rgb(251,190,190); fill-rule: nonzero; opacity: 1;" vector-effect="non-scaling-stroke"  points="7.7,-4.56 -1.39,-13.39 -19.63,-7.73 -17.88,13.39 19.63,11.65 8.11,-4 7.7,-4.56 " />
</g>
<g transform="matrix(1 0 0 1 161.81 639.97)"  >
<circle style="stroke: none; stroke-width: 1; stroke-dasharray: none; stroke-linecap: butt; stroke-dashoffset: 0; stroke-linejoin: miter; stroke-miterlimit: 4; fill: rgb(251,190,190); fill-rule: nonzero; opacity: 1;" vector-effect="non-scaling-stroke"  cx="0" cy="0" r="29.15772" />
</g>
<g transform="matrix(1 0 0 1 363.42 754.99)"  >
<path style="stroke: none; stroke-width: 1; stroke-dasharray: none; stroke-linecap: butt; stroke-dashoffset: 0; stroke-linejoin: miter; stroke-miterlimit: 4; fill: rgb(42,42,42); fill-rule: nonzero; opacity: 1;" vector-effect="non-scaling-stroke"  transform=" translate(-423.19, -665.32)" d="M 402.59166 617.0614 C 402.59166 617.0614 438.41244 678.62008 446.93742 687.8616400000001 C 450.9915709280277 692.409792750594 455.31080449036057 696.7145310752301 459.8725599999999 700.7533700000001 C 459.87255999999996 700.7533700000001 455.86411 714.0468000000001 449.48123 713.5723700000001 C 445.8431471557127 713.3532777554288 442.27529534226926 712.4740022963363 438.95202 710.97751 C 438.95202 710.97751 436.10312 703.5925100000001 431.13383 700.3538400000001 C 426.16454 697.1151700000001 385.56552999999997 657.1740500000001 386.51445 644.4082800000001 C 387.46337000000005 631.6425100000001 402.59166 617.0614 402.59166 617.0614 Z" stroke-linecap="round" />
</g>
<g transform="matrix(1 0 0 1 281.36 815.69)"  >
<path style="stroke: none; stroke-width: 1; stroke-dasharray: none; stroke-linecap: butt; stroke-dashoffset: 0; stroke-linejoin: miter; stroke-miterlimit: 4; fill: rgb(42,42,42); fill-rule: nonzero; opacity: 1;" vector-effect="non-scaling-stroke"  transform=" translate(-343.97, -723.17)" d="M 275.02289 704.90827 C 275.02289 704.90827 313.21597 734.55251 365.12159 706.69757 L 369.59472000000005 703.4057 C 369.59472000000005 703.4057 362.04588000000007 720.3877 361.34548000000007 724.9917800000001 C 360.53337000000005 730.3302100000001 340.8798300000001 761.60189 337.67264000000006 763.10017 C 334.46545000000003 764.5984500000001 333.75864000000007 765.9805600000001 333.75864000000007 765.9805600000001 L 347.3690900000001 780.9611900000001 L 352.4013500000001 777.2578300000001 C 352.4013500000001 777.2578300000001 372.0234000000001 749.4571600000002 377.7624600000001 744.3717000000001 C 383.5015200000001 739.2862400000001 410.84518 686.84 410.84518 686.84 C 410.84518 686.84 421.29949000000005 667.0790000000001 395.20880000000005 665.59265 C 369.11811000000006 664.1063 357.11233000000004 671.21765 357.11233000000004 671.21765 L 310.8079 678.5733 Z" stroke-linecap="round" />
</g>
<g transform="matrix(1 0 0 1 403.65 802.9)"  >
<path style="stroke: none; stroke-width: 1; stroke-dasharray: none; stroke-linecap: butt; stroke-dashoffset: 0; stroke-linejoin: miter; stroke-miterlimit: 4; fill: rgb(42,42,42); fill-rule: nonzero; opacity: 1;" vector-effect="non-scaling-stroke"  transform=" translate(-463.42, -713.24)" d="M 460.31553 697.8415 L 479.63353 711.20768 C 479.63353 711.20768 504.27913 718.92926 489.09765 724.06792 C 473.91616999999997 729.2065799999999 433.90994 731.0652799999999 433.00229 723.9756 C 432.09464 716.88592 434.58029 705.72692 436.57612 706.33713 C 438.57195 706.94734 452.42459 710.54429 460.31553 697.8415 Z" stroke-linecap="round" />
</g>
<g transform="matrix(1 0 0 1 281.87 874.71)"  >
<path style="stroke: none; stroke-width: 1; stroke-dasharray: none; stroke-linecap: butt; stroke-dashoffset: 0; stroke-linejoin: miter; stroke-miterlimit: 4; fill: rgb(42,42,42); fill-rule: nonzero; opacity: 1;" vector-effect="non-scaling-stroke"  transform=" translate(-341.64, -785.05)" d="M 354.11082 772.66579 L 357.68634 792.30058 C 357.68634 792.30058 367.85333999999995 811.74493 355.64615 805.71177 C 343.43896 799.67861 318.28893 776.76177 322.00275 771.95745 C 325.71657 767.15313 333.91345 761.94264 334.74588 763.5082199999999 C 335.57831 765.0737999999999 341.73928 775.55648 354.11082 772.66579 Z" stroke-linecap="round" />
</g>
<g transform="matrix(1 0 0 1 197.07 731.09)"  >
<path style="stroke: none; stroke-width: 1; stroke-dasharray: none; stroke-linecap: butt; stroke-dashoffset: 0; stroke-linejoin: miter; stroke-miterlimit: 4; fill: rgb(255,255,255); fill-rule: nonzero; opacity: 1;" vector-effect="non-scaling-stroke"  transform=" translate(-259.68, -641.43)" d="M 317.27546 685.01918 C 317.27546 685.01918 291.31287000000003 715.33109 275.55054 707.9678 C 259.78821 700.60451 195.30146000000002 615.3198 202.66475000000003 599.55747 C 210.02804000000003 583.79514 212.49694 587.15 212.49694 587.15 L 245.79349 590.2290899999999 L 236.21319 574.8684599999999 C 236.21319 574.8684599999999 240.68632 571.5765899999999 244.94881 576.19738 C 249.21130000000002 580.81817 266.32425 592.35926 272.28588 608.6590299999999 C 278.24751000000003 624.9587999999999 295.75022 624.1456 295.75022 624.1456 Z" stroke-linecap="round" />
</g>
<g transform="matrix(1 0 0 1 319.69 701.21)"  >
<polygon style="stroke: none; stroke-width: 1; stroke-dasharray: none; stroke-linecap: butt; stroke-dashoffset: 0; stroke-linejoin: miter; stroke-miterlimit: 4; fill: rgb(63,61,86); fill-rule: nonzero; opacity: 1;" vector-effect="non-scaling-stroke"  points="42.66,10.97 -2.34,58.74 -42.66,-12.44 -4.33,-58.74 42.66,10.97 " />
</g>
<g transform="matrix(1 0 0 1 320.21 700.04)"  >
<polygon style="stroke: none; stroke-width: 1; stroke-dasharray: none; stroke-linecap: butt; stroke-dashoffset: 0; stroke-linejoin: miter; stroke-miterlimit: 4; fill: rgb(255,255,255); fill-rule: nonzero; opacity: 1;" vector-effect="non-scaling-stroke"  points="38.74,11.63 -1.91,53.61 -38.74,-11.08 -4.96,-53.61 38.74,11.63 " />
</g>
<g transform="matrix(1 0 0 1 284.88 769.79)"  >
<polygon style="stroke: none; stroke-width: 1; stroke-dasharray: none; stroke-linecap: butt; stroke-dashoffset: 0; stroke-linejoin: miter; stroke-miterlimit: 4; fill: rgb(179,179,179); fill-rule: nonzero; opacity: 1;" vector-effect="non-scaling-stroke"  points="30.26,-11.66 32.47,-9.83 31.06,-7.07 -31.88,11.66 -32.47,9.5 -29.61,6.54 30.26,-11.66 " />
</g>
<g transform="matrix(1 0 0 1 265.46 734.35)"  >
<polygon style="stroke: none; stroke-width: 1; stroke-dasharray: none; stroke-linecap: butt; stroke-dashoffset: 0; stroke-linejoin: miter; stroke-miterlimit: 4; fill: rgb(208,205,225); fill-rule: nonzero; opacity: 1;" vector-effect="non-scaling-stroke"  points="52.45,25.2 -12.72,45.57 -52.45,-29.49 11.57,-45.57 52.45,25.2 " />
</g>
<g transform="matrix(1 0 0 1 296.08 723.74)"  >
<polygon style="stroke: none; stroke-width: 1; stroke-dasharray: none; stroke-linecap: butt; stroke-dashoffset: 0; stroke-linejoin: miter; stroke-miterlimit: 4; fill: rgb(63,61,86); fill-rule: nonzero; opacity: 1;" vector-effect="non-scaling-stroke"  points="16.91,25.63 14.12,27.69 -16.91,-26.19 -13.71,-27.69 16.91,25.63 " />
</g>
<g transform="matrix(1 0 0 1 277.15 729.74)"  >
<polygon style="stroke: none; stroke-width: 1; stroke-dasharray: none; stroke-linecap: butt; stroke-dashoffset: 0; stroke-linejoin: miter; stroke-miterlimit: 4; fill: rgb(63,61,86); fill-rule: nonzero; opacity: 1;" vector-effect="non-scaling-stroke"  points="29.43,22.62 1.86,30.84 -29.43,-24.57 -2.16,-30.84 29.43,22.62 " />
</g>
<g transform="matrix(1 0 0 1 246.17 715.74)"  >
<path style="stroke: none; stroke-width: 1; stroke-dasharray: none; stroke-linecap: butt; stroke-dashoffset: 0; stroke-linejoin: miter; stroke-miterlimit: 4; fill: rgb(251,190,190); fill-rule: nonzero; opacity: 1;" vector-effect="non-scaling-stroke"  transform=" translate(-305.94, -626.07)" d="M 288.692 621.58223 L 294.39957 619.96778 C 294.39957 619.96778 326.22932 616.3686799999999 326.69399999999996 626.37023 C 327.15867999999995 636.3717800000001 290.1273 631.73144 290.1273 631.73144 L 285.18949 625.02176 Z" stroke-linecap="round" />
</g>
<g transform="matrix(1 0 0 1 266.43 744.62)"  >
<path style="stroke: none; stroke-width: 1; stroke-dasharray: none; stroke-linecap: butt; stroke-dashoffset: 0; stroke-linejoin: miter; stroke-miterlimit: 4; fill: rgb(251,190,190); fill-rule: nonzero; opacity: 1;" vector-effect="non-scaling-stroke"  transform=" translate(-326.2, -654.95)" d="M 316.60994 666.54583 L 324.55408 663.28545 C 324.55408 663.28545 348.53415 652.53368 341.65508 645.5286699999999 C 334.77601 638.5236599999998 313.56016999999997 650.68904 313.56016999999997 650.68904 L 309.49852999999996 654.54004 Z" stroke-linecap="round" />
</g>
<g transform="matrix(1 0 0 1 202 746.23)"  >
<path style="stroke: none; stroke-width: 1; stroke-dasharray: none; stroke-linecap: butt; stroke-dashoffset: 0; stroke-linejoin: miter; stroke-miterlimit: 4; fill: rgb(255,255,255); fill-rule: nonzero; opacity: 1;" vector-effect="non-scaling-stroke"  transform=" translate(-261.77, -656.57)" d="M 309.53 651.069 C 309.53 651.069 322.46513999999996 663.96073 319.52178 666.9887699999999 C 316.57842 670.0168099999999 268.31316999999996 709.8460399999999 256.34866 697.1019699999999 C 244.38415000000003 684.3579 186.09134999999998 620.37374 208.774 614.88658 C 231.45665000000002 609.39942 237.44976 622.22817 237.44976 622.22817 L 267.3936 673.45848 Z" stroke-linecap="round" />
</g>
<g transform="matrix(1 0 0 1 220.87 712.85)"  >
<polygon style="stroke: none; stroke-width: 1; stroke-dasharray: none; stroke-linecap: butt; stroke-dashoffset: 0; stroke-linejoin: miter; stroke-miterlimit: 4; fill: rgb(255,255,255); fill-rule: nonzero; opacity: 1;" vector-effect="non-scaling-stroke"  points="-9.84,-11.27 11.41,-4.07 11.06,11.27 -11.41,8.85 -9.84,-11.27 " />
</g>
<g transform="matrix(1 0 0 1 205.65 741.97)"  >
<polygon style="stroke: none; stroke-width: 1; stroke-dasharray: none; stroke-linecap: butt; stroke-dashoffset: 0; stroke-linejoin: miter; stroke-miterlimit: 4; fill: rgb(0,0,0); fill-rule: nonzero; opacity: 0.2;" vector-effect="non-scaling-stroke"  points="24.52,6.71 1.63,20.11 -24.52,-20.11 0.72,13.02 24.52,6.71 " />
</g>
<g transform="matrix(1 0 0 1 149.01 631.51)"  >
<circle style="stroke: none; stroke-width: 1; stroke-dasharray: none; stroke-linecap: butt; stroke-dashoffset: 0; stroke-linejoin: miter; stroke-miterlimit: 4; fill: rgb(42,42,42); fill-rule: nonzero; opacity: 1;" vector-effect="non-scaling-stroke"  cx="0" cy="0" r="34.71157" />
</g>
<g transform="matrix(1 0 0 1 330.04 691.05)"  >
<polygon style="stroke: none; stroke-width: 1; stroke-dasharray: none; stroke-linecap: butt; stroke-dashoffset: 0; stroke-linejoin: miter; stroke-miterlimit: 4; fill: rgb(0,0,0); fill-rule: nonzero; opacity: 1;" vector-effect="non-scaling-stroke"  points="6.53,24.15 -17.78,-11.4 -7.48,-24.15 17.78,12.43 6.53,24.15 " />
</g>
<g transform="matrix(1 0 0 1 318.21 701.51)"  >
<polygon style="stroke: none; stroke-width: 1; stroke-dasharray: none; stroke-linecap: butt; stroke-dashoffset: 0; stroke-linejoin: miter; stroke-miterlimit: 4; fill: rgb(230,230,230); fill-rule: nonzero; opacity: 1;" vector-effect="non-scaling-stroke"  points="17.68,28 -19.33,-25.79 -17.5,-28 19.33,25.92 17.68,28 " />
</g>
<g transform="matrix(1 0 0 1 313.44 706.74)"  >
<polygon style="stroke: none; stroke-width: 1; stroke-dasharray: none; stroke-linecap: butt; stroke-dashoffset: 0; stroke-linejoin: miter; stroke-miterlimit: 4; fill: rgb(230,230,230); fill-rule: nonzero; opacity: 1;" vector-effect="non-scaling-stroke"  points="17.68,28 -19.33,-25.79 -17.5,-28 19.33,25.92 17.68,28 " />
</g>
<g transform="matrix(1 0 0 1 309.38 710.59)"  >
<polygon style="stroke: none; stroke-width: 1; stroke-dasharray: none; stroke-linecap: butt; stroke-dashoffset: 0; stroke-linejoin: miter; stroke-miterlimit: 4; fill: rgb(230,230,230); fill-rule: nonzero; opacity: 1;" vector-effect="non-scaling-stroke"  points="17.67,28 -19.33,-25.79 -17.5,-28 19.33,25.92 17.67,28 " />
</g>
<g transform="matrix(1 0 0 1 180 618.59)"  >
<path style="stroke: none; stroke-width: 1; stroke-dasharray: none; stroke-linecap: butt; stroke-dashoffset: 0; stroke-linejoin: miter; stroke-miterlimit: 4; fill: rgb(42,42,42); fill-rule: nonzero; opacity: 1;" vector-effect="non-scaling-stroke"  transform=" translate(-81.74, -435.79)" d="M 66.11686 425.5444 L 76.85486 425.5444 C 82.29172378109351 425.5444 87.50590777642675 427.70418572757575 91.3503510244255 431.5486289755745 C 95.19479427242425 435.39307222357326 97.35458 440.6072562189065 97.35458 446.04412 L 97.35458 446.04412 L 66.11686 446.04412 L 66.11686 425.5444 Z" stroke-linecap="round" />
</g>
<g transform="matrix(1 0 0 1 311.15 605.11)"  >
<path style="stroke: none; stroke-width: 1; stroke-dasharray: none; stroke-linecap: butt; stroke-dashoffset: 0; stroke-linejoin: miter; stroke-miterlimit: 4; fill: rgb(42,42,42); fill-rule: nonzero; opacity: 1;" vector-effect="non-scaling-stroke"  transform=" translate(-370.92, -515.45)" d="M 372.06674 505.62594 L 370.1201 505.48104 C 370.04461 506.4932 369.99057 507.51144 369.92634 508.52694 L 361.18859 508.23440000000005 L 370.35414 525.40975 L 380.64792 508.88586000000004 L 371.8781 508.59225000000004 C 371.94084 507.6035 371.99322 506.612 372.06674 505.62594 Z" stroke-linecap="round" />
</g>
<g transform="matrix(1 0 0 1 367.94 451.33)"  >
<path style="stroke: none; stroke-width: 1; stroke-dasharray: none; stroke-linecap: butt; stroke-dashoffset: 0; stroke-linejoin: miter; stroke-miterlimit: 4; fill: rgb(42,42,42); fill-rule: nonzero; opacity: 1;" vector-effect="non-scaling-stroke"  transform=" translate(-427.71, -361.66)" d="M 423.31656 365.62543 L 424.86856 366.81043 C 427.19651 363.76131 429.6279 360.71743 432.09556 357.76315 L 430.59697 356.51147 C 428.11117 359.48762 425.66167 362.5539 423.31656 365.62543 Z" stroke-linecap="round" />
</g>
<g transform="matrix(1 0 0 1 383.22 433.84)"  >
<path style="stroke: none; stroke-width: 1; stroke-dasharray: none; stroke-linecap: butt; stroke-dashoffset: 0; stroke-linejoin: miter; stroke-miterlimit: 4; fill: rgb(42,42,42); fill-rule: nonzero; opacity: 1;" vector-effect="non-scaling-stroke"  transform=" translate(-442.99, -344.17)" d="M 438.27191 347.72772 L 439.7133 349.04422999999997 C 442.30341 346.20768999999996 444.99267 343.39068999999995 447.7053 340.67044999999996 L 446.323 339.292 C 443.58989 342.03176 440.88109 344.87021 438.27191 347.72772 Z" stroke-linecap="round" />
</g>
<g transform="matrix(1 0 0 1 399.98 417.77)"  >
<path style="stroke: none; stroke-width: 1; stroke-dasharray: none; stroke-linecap: butt; stroke-dashoffset: 0; stroke-linejoin: miter; stroke-miterlimit: 4; fill: rgb(42,42,42); fill-rule: nonzero; opacity: 1;" vector-effect="non-scaling-stroke"  transform=" translate(-459.74, -328.09)" d="M 454.73586 331.219 L 456.05617 332.65753 C 458.88890000000004 330.05645 461.81362 327.48731000000004 464.74883 325.02113 L 463.49333 323.52636 C 460.5362 326.01062 457.58956 328.59931 454.73586 331.219 Z" stroke-linecap="round" />
</g>
<g transform="matrix(1 0 0 1 354.25 470.1)"  >
<path style="stroke: none; stroke-width: 1; stroke-dasharray: none; stroke-linecap: butt; stroke-dashoffset: 0; stroke-linejoin: miter; stroke-miterlimit: 4; fill: rgb(42,42,42); fill-rule: nonzero; opacity: 1;" vector-effect="non-scaling-stroke"  transform=" translate(-414.02, -380.44)" d="M 409.99087 384.77863 L 411.64103 385.82154 C 413.69303 382.57508 415.84794 379.32767 418.04529 376.16892 L 416.44280000000003 375.05356 C 414.22876 378.23614 412.0581 381.50787 409.99087 384.77863 Z" stroke-linecap="round" />
</g>
<g transform="matrix(1 0 0 1 418.07 403.23)"  >
<path style="stroke: none; stroke-width: 1; stroke-dasharray: none; stroke-linecap: butt; stroke-dashoffset: 0; stroke-linejoin: miter; stroke-miterlimit: 4; fill: rgb(42,42,42); fill-rule: nonzero; opacity: 1;" vector-effect="non-scaling-stroke"  transform=" translate(-477.84, -313.56)" d="M 472.57875 316.22692 L 473.76751 317.77508 C 476.81807000000003 315.43282 479.95633000000004 313.13156 483.09506 310.93516 L 481.97589 309.33552 C 478.81332 311.54861 475.65171 313.867 472.57875 316.22692 Z" stroke-linecap="round" />
</g>
<g transform="matrix(1 0 0 1 342.27 490.03)"  >
<path style="stroke: none; stroke-width: 1; stroke-dasharray: none; stroke-linecap: butt; stroke-dashoffset: 0; stroke-linejoin: miter; stroke-miterlimit: 4; fill: rgb(42,42,42); fill-rule: nonzero; opacity: 1;" vector-effect="non-scaling-stroke"  transform=" translate(-402.04, -400.36)" d="M 398.40591 405.04291 L 400.14191 405.93519000000003 C 401.90075 402.51476 403.76064 399.08765000000005 405.66962 395.74967000000004 L 403.97462 394.78017000000006 C 402.05132 398.14341 400.17761 401.59625 398.40591 405.04291 Z" stroke-linecap="round" />
</g>
<g transform="matrix(1 0 0 1 319.05 555.06)"  >
<path style="stroke: none; stroke-width: 1; stroke-dasharray: none; stroke-linecap: butt; stroke-dashoffset: 0; stroke-linejoin: miter; stroke-miterlimit: 4; fill: rgb(63,61,86); fill-rule: nonzero; opacity: 1;" vector-effect="non-scaling-stroke"  transform=" translate(-377.3, -465.39)" d="M 379.57444 459.99724 L 377.68404999999996 459.51059 C 376.71930999999995 463.25658999999996 375.82604999999995 467.07644 375.02910999999995 470.86485 L 376.93952999999993 471.26714 C 377.73076 467.50733 378.61733 463.71511 379.57444 459.99724 Z" stroke-linecap="round" />
</g>
<g transform="matrix(1 0 0 1 437.37 390.34)"  >
<path style="stroke: none; stroke-width: 1; stroke-dasharray: none; stroke-linecap: butt; stroke-dashoffset: 0; stroke-linejoin: miter; stroke-miterlimit: 4; fill: rgb(42,42,42); fill-rule: nonzero; opacity: 1;" vector-effect="non-scaling-stroke"  transform=" translate(-497.13, -300.67)" d="M 491.66474 302.86739 L 492.71242 304.51469 C 495.94842 302.45556 499.27542 300.44077 502.60142 298.52606999999995 L 501.62715000000003 296.83395999999993 C 498.27635 298.76344 494.92455 300.793 491.66474 302.86739 Z" stroke-linecap="round" />
</g>
<g transform="matrix(1 0 0 1 313.26 577.89)"  >
<path style="stroke: none; stroke-width: 1; stroke-dasharray: none; stroke-linecap: butt; stroke-dashoffset: 0; stroke-linejoin: miter; stroke-miterlimit: 4; fill: rgb(42,42,42); fill-rule: nonzero; opacity: 1;" vector-effect="non-scaling-stroke"  transform=" translate(-373.03, -488.21)" d="M 374.80843 482.64286 L 372.88181 482.32635999999997 C 372.25500999999997 486.13764999999995 371.70448 490.02135999999996 371.24546999999995 493.86985999999996 L 373.18447 494.10054999999994 C 373.63968 490.28164 374.1864 486.4265 374.80843 482.64286 Z" stroke-linecap="round" />
</g>
<g transform="matrix(1 0 0 1 332.1 510.94)"  >
<path style="stroke: none; stroke-width: 1; stroke-dasharray: none; stroke-linecap: butt; stroke-dashoffset: 0; stroke-linejoin: miter; stroke-miterlimit: 4; fill: rgb(42,42,42); fill-rule: nonzero; opacity: 1;" vector-effect="non-scaling-stroke"  transform=" translate(-391.87, -421.27)" d="M 388.66081 426.2662 L 390.46922 427.00120000000004 C 391.9168 423.43820000000005 393.46544 419.85766000000007 395.07174000000003 416.35953000000006 L 393.29766 415.5444600000001 C 391.679 419.06927 390.11888 422.67655 388.66081 426.2662 Z" stroke-linecap="round" />
</g>
<g transform="matrix(1 0 0 1 323.82 532.69)"  >
<path style="stroke: none; stroke-width: 1; stroke-dasharray: none; stroke-linecap: butt; stroke-dashoffset: 0; stroke-linejoin: miter; stroke-miterlimit: 4; fill: rgb(42,42,42); fill-rule: nonzero; opacity: 1;" vector-effect="non-scaling-stroke"  transform=" translate(-383.59, -443.02)" d="M 380.8409 448.28645 L 382.70840999999996 448.85652 C 383.83426 445.17251999999996 385.05781999999994 441.46607 386.34524999999996 437.8402 L 384.50537999999995 437.18719999999996 C 383.20842 440.83975 381.97533 444.5743 380.8409 448.28645 Z" stroke-linecap="round" />
</g>
<g transform="matrix(1 0 0 1 569.73 352.57)"  >
<path style="stroke: none; stroke-width: 1; stroke-dasharray: none; stroke-linecap: butt; stroke-dashoffset: 0; stroke-linejoin: miter; stroke-miterlimit: 4; fill: rgb(42,42,42); fill-rule: nonzero; opacity: 1;" vector-effect="non-scaling-stroke"  transform=" translate(-629.5, -262.9)" d="M 623.73237 263.95373 C 627.5598699999999 263.82123 631.4569499999999 263.76832 635.3120899999999 263.80454000000003 L 635.3292499999999 261.85219 C 631.4474199999999 261.81596 627.5198299999998 261.86887 623.6656399999999 262.00233000000003 Z" stroke-linecap="round" />
</g>
<g transform="matrix(1 0 0 1 457.72 379.22)"  >
<path style="stroke: none; stroke-width: 1; stroke-dasharray: none; stroke-linecap: butt; stroke-dashoffset: 0; stroke-linejoin: miter; stroke-miterlimit: 4; fill: rgb(42,42,42); fill-rule: nonzero; opacity: 1;" vector-effect="non-scaling-stroke"  transform=" translate(-517.48, -289.55)" d="M 511.84465 291.24954 L 512.74265 292.98263000000003 C 516.1521200000001 291.21617000000003 519.64215 289.50452 523.11692 287.89488000000006 L 522.2961300000001 286.12365000000005 C 518.79563 287.74521 515.27938 289.46973 511.84465 291.24954 Z" stroke-linecap="round" />
</g>
<g transform="matrix(1 0 0 1 616.05 356.02)"  >
<path style="stroke: none; stroke-width: 1; stroke-dasharray: none; stroke-linecap: butt; stroke-dashoffset: 0; stroke-linejoin: miter; stroke-miterlimit: 4; fill: rgb(42,42,42); fill-rule: nonzero; opacity: 1;" vector-effect="non-scaling-stroke"  transform=" translate(-675.82, -266.36)" d="M 669.93019 266.388 C 673.73861 266.92708999999996 677.58231 267.55818 681.3545200000001 268.26408999999995 L 681.7129600000001 266.34508999999997 C 677.9131100000001 265.63392999999996 674.0408100000001 264.99760999999995 670.2028300000001 264.45469999999995 Z" stroke-linecap="round" />
</g>
<g transform="matrix(1 0 0 1 638.79 360.8)"  >
<path style="stroke: none; stroke-width: 1; stroke-dasharray: none; stroke-linecap: butt; stroke-dashoffset: 0; stroke-linejoin: miter; stroke-miterlimit: 4; fill: rgb(42,42,42); fill-rule: nonzero; opacity: 1;" vector-effect="non-scaling-stroke"  transform=" translate(-698.56, -271.14)" d="M 692.68543 270.64541 C 696.42426 271.51864 700.1974299999999 272.48909000000003 703.89813 273.52962 L 704.42625 271.64971 C 700.6979 270.60156 696.8971 269.62443 693.12966 268.74454000000003 Z" stroke-linecap="round" />
</g>
<g transform="matrix(1 0 0 1 661 367.59)"  >
<path style="stroke: none; stroke-width: 1; stroke-dasharray: none; stroke-linecap: butt; stroke-dashoffset: 0; stroke-linejoin: miter; stroke-miterlimit: 4; fill: rgb(42,42,42); fill-rule: nonzero; opacity: 1;" vector-effect="non-scaling-stroke"  transform=" translate(-720.77, -277.92)" d="M 714.96879 276.91049 C 718.6142 278.11307999999997 722.28535 279.41528999999997 725.87929 280.78136 L 726.5732899999999 278.95675 C 722.9517099999999 277.58019 719.2538599999999 276.26797 715.5808 275.05633 Z" stroke-linecap="round" />
</g>
<g transform="matrix(1 0 0 1 592.99 353.28)"  >
<path style="stroke: none; stroke-width: 1; stroke-dasharray: none; stroke-linecap: butt; stroke-dashoffset: 0; stroke-linejoin: miter; stroke-miterlimit: 4; fill: rgb(42,42,42); fill-rule: nonzero; opacity: 1;" vector-effect="non-scaling-stroke"  transform=" translate(-652.75, -263.61)" d="M 646.88609 264.15917 C 650.73075 264.36079 654.6154399999999 264.65059 658.4334 265.01952 L 658.62216 263.0767 C 654.77559 262.70444000000003 650.86135 262.41270000000003 646.98905 262.2097 Z" stroke-linecap="round" />
</g>
<g transform="matrix(1 0 0 1 546.53 353.88)"  >
<path style="stroke: none; stroke-width: 1; stroke-dasharray: none; stroke-linecap: butt; stroke-dashoffset: 0; stroke-linejoin: miter; stroke-miterlimit: 4; fill: rgb(42,42,42); fill-rule: nonzero; opacity: 1;" vector-effect="non-scaling-stroke"  transform=" translate(-606.3, -264.21)" d="M 600.42326 263.82885 L 600.66159 265.76691 C 604.4662000000001 265.29884 608.34041 264.90846 612.1755300000001 264.60722 L 612.0230000000001 262.66058 C 608.15833 262.96421 604.25553 263.35745 600.42326 263.82885 Z" stroke-linecap="round" />
</g>
<g transform="matrix(1 0 0 1 500.96 362.6)"  >
<path style="stroke: none; stroke-width: 1; stroke-dasharray: none; stroke-linecap: butt; stroke-dashoffset: 0; stroke-linejoin: miter; stroke-miterlimit: 4; fill: rgb(42,42,42); fill-rule: nonzero; opacity: 1;" vector-effect="non-scaling-stroke"  transform=" translate(-560.73, -272.93)" d="M 554.87751 273.59635 L 555.4552100000001 275.46099999999996 C 559.1239800000001 274.32514999999995 562.8680600000001 273.25649999999996 566.5840200000001 272.28460999999993 L 566.0902100000001 270.3961299999999 C 562.3466 271.37469 558.57392 272.45144 554.87751 273.59635 Z" stroke-linecap="round" />
</g>
<g transform="matrix(1 0 0 1 478.95 369.95)"  >
<path style="stroke: none; stroke-width: 1; stroke-dasharray: none; stroke-linecap: butt; stroke-dashoffset: 0; stroke-linejoin: miter; stroke-miterlimit: 4; fill: rgb(42,42,42); fill-rule: nonzero; opacity: 1;" vector-effect="non-scaling-stroke"  transform=" translate(-538.72, -280.28)" d="M 532.96069 281.46822 L 533.70188 283.27472 C 537.25149 281.81808 540.87736 280.42388 544.47893 279.12977 L 543.81924 277.29277 C 540.19 278.59593 536.537 280.00109 532.96069 281.46822 Z" stroke-linecap="round" />
</g>
<g transform="matrix(1 0 0 1 523.56 357.23)"  >
<path style="stroke: none; stroke-width: 1; stroke-dasharray: none; stroke-linecap: butt; stroke-dashoffset: 0; stroke-linejoin: miter; stroke-miterlimit: 4; fill: rgb(42,42,42); fill-rule: nonzero; opacity: 1;" vector-effect="non-scaling-stroke"  transform=" translate(-583.32, -267.56)" d="M 577.434 267.69829 L 577.843 269.60775 C 581.59376 268.80364000000003 585.41792 268.07198 589.2101399999999 267.43375000000003 L 588.8860199999999 265.50809000000004 C 585.06562 266.15156 581.21239 266.88846 577.434 267.69829 Z" stroke-linecap="round" />
</g>
<g transform="matrix(1 0 0 1 685.53 375.16)"  >
<path style="stroke: none; stroke-width: 1; stroke-dasharray: none; stroke-linecap: butt; stroke-dashoffset: 0; stroke-linejoin: miter; stroke-miterlimit: 4; fill: rgb(42,42,42); fill-rule: nonzero; opacity: 1;" vector-effect="non-scaling-stroke"  transform=" translate(-745.3, -285.49)" d="M 755.01 292.85257 L 744.09979 276.72907000000004 L 740.26348 284.62566000000004 C 739.3349599999999 284.21103000000005 738.41148 283.78741 737.48384 283.38578 L 736.70784 285.17798 C 737.61365 285.56998 738.50928 285.98098 739.40984 286.38271 L 735.5917000000001 294.24194 Z" stroke-linecap="round" />
</g>
<g transform="matrix(0 0 0 0 0 0)"  >
<g style=""   >
</g>
</g>
<g transform="matrix(0 0 0 0 0 0)"  >
<g style=""   >
</g>
</g>
<g transform="matrix(0 0 0 0 0 0)"  >
<g style=""   >
</g>
</g>
<g transform="matrix(0 0 0 0 0 0)"  >
<g style=""   >
</g>
</g>
<g transform="matrix(0 0 0 0 0 0)"  >
<g style=""   >
</g>
</g>
<g transform="matrix(0 0 0 0 0 0)"  >
<g style=""   >
</g>
</g>
<g transform="matrix(0 0 0 0 0 0)"  >
<g style=""   >
</g>
</g>
<g transform="matrix(0 0 0 0 0 0)"  >
<g style=""   >
</g>
</g>
<g transform="matrix(0 0 0 0 0 0)"  >
<g style=""   >
</g>
</g>
<g transform="matrix(0 0 0 0 0 0)"  >
<g style=""   >
</g>
</g>
<g transform="matrix(0 0 0 0 0 0)"  >
<g style=""   >
</g>
</g>
<g transform="matrix(0 0 0 0 0 0)"  >
<g style=""   >
</g>
</g>
<g transform="matrix(0 0 0 0 0 0)"  >
<g style=""   >
</g>
</g>
<g transform="matrix(0 0 0 0 0 0)"  >
<g style=""   >
</g>
</g>
<g transform="matrix(0 0 0 0 0 0)"  >
<g style=""   >
</g>
</g>
<g transform="matrix(0 0 0 0 0 0)"  >
<g style=""   >
</g>
</g>
<g transform="matrix(0 0 0 0 0 0)"  >
<g style=""   >
</g>
</g>
<g transform="matrix(0 0 0 0 0 0)"  >
<g style=""   >
</g>
</g>
<g transform="matrix(0 0 0 0 0 0)"  >
<g style=""   >
</g>
</g>
<g transform="matrix(0 0 0 0 0 0)"  >
<g style=""   >
</g>
</g>
<g transform="matrix(0 0 0 0 0 0)"  >
<g style=""   >
</g>
</g>
<g transform="matrix(0 0 0 0 0 0)"  >
<g style=""   >
</g>
</g>
<g transform="matrix(0 0 0 0 0 0)"  >
<g style=""   >
</g>
</g>
<g transform="matrix(0 0 0 0 0 0)"  >
<g style=""   >
</g>
</g>
<g transform="matrix(0 0 0 0 0 0)"  >
<g style=""   >
</g>
</g>
<g transform="matrix(0 0 0 0 0 0)"  >
<g style=""   >
</g>
</g>
<g transform="matrix(0 0 0 0 0 0)"  >
<g style=""   >
</g>
</g>
<g transform="matrix(0 0 0 0 0 0)"  >
<g style=""   >
</g>
</g>
<g transform="matrix(0 0 0 0 0 0)"  >
<g style=""   >
</g>
</g>
<g transform="matrix(0 0 0 0 0 0)"  >
<g style=""   >
</g>
</g>
<g transform="matrix(0 0 0 0 0 0)"  >
<g style=""   >
</g>
</g>
<g transform="matrix(0 0 0 0 0 0)"  >
<g style=""   >
</g>
</g>
<g transform="matrix(0 0 0 0 0 0)"  >
<g style=""   >
</g>
</g>
<g transform="matrix(0 0 0 0 0 0)"  >
<g style=""   >
</g>
</g>
<g transform="matrix(0 0 0 0 0 0)"  >
<g style=""   >
</g>
</g>
<g transform="matrix(0 0 0 0 0 0)"  >
<g style=""   >
</g>
</g>
<g transform="matrix(0 0 0 0 0 0)"  >
<g style=""   >
</g>
</g>
<g transform="matrix(0 0 0 0 0 0)"  >
<g style=""   >
</g>
</g>
<g transform="matrix(0 0 0 0 0 0)"  >
<g style=""   >
</g>
</g>
<g transform="matrix(NaN NaN NaN NaN 0 0)"  >
<g style=""   >
</g>
</g>
<g transform="matrix(NaN NaN NaN NaN 0 0)"  >
<g style=""   >
</g>
</g>
<g transform="matrix(NaN NaN NaN NaN 0 0)"  >
<g style=""   >
</g>
</g>
</svg>